<?xml version="1.0" encoding="utf-8"?>
<!-- Generator: Adobe Illustrator 24.0.2, SVG Export Plug-In . SVG Version: 6.00 Build 0)  -->
<svg version="1.1" id="Layer_1" xmlns="http://www.w3.org/2000/svg" xmlns:xlink="http://www.w3.org/1999/xlink" x="0px" y="0px"
	 viewBox="0 0 1280 1208" style="enable-background:new 0 0 1280 1208;" xml:space="preserve">
<g transform="translate(0.000000,1208.000000) scale(0.100000,-0.100000)">
	<path d="M10084,12062c-22-11-56-38-76-61c-19-22-38-41-41-41s-9,16-13,35c-7,40-18,50-60,59c-46,10-64-12-64-80c0-48-2-54-21-54
		c-12,0-37-10-56-21c-19-12-36-19-38-17c-3,2,0,20,5,39c14,47,13,65-6,83c-27,28-66,19-133-30c-50-36-76-48-121-54
		c-31-4-75-17-97-29c-54-27-128-111-149-169c-31-83-66-108-128-91c-33,9-40,7-108-39c-96-65-125-95-140-147c-10-31-28-56-69-91
		c-54-47-114-113-231-254c-30-36-83-87-118-114c-43-31-71-62-82-86c-9-21-67-91-128-155c-62-64-120-135-131-158c-20-46-24-93-9-117
		c7-11-3-21-48-45c-79-42-106-84-99-153c3-30,13-64,21-77c17-26,12-33-54-73c-58-34-83-67-78-100c4-28-1-33-95-88
		c-175-104-271-197-284-276c-11-71,4-72,92-7c139,104,197,123,203,68c2-21-8-36-49-73c-88-79-139-96-233-76c-50,10-64,9-124-10
		c-142-46-322-141-610-323c-152-96-173-113-167-131c12-42,17-95,11-121c-4-15-26-48-50-73c-36-40-45-57-54-112c-6-36-17-95-23-131
		c-17-90-12-99,53-99c69,0,98-9,98-28c0-9-44-57-97-108c-87-82-96-93-83-108c7-10,25-23,39-31c26-13,42-10,115,20c17,8,19,5,13-31
		c-6-39-21-57-94-114c-32-25-37-43-34-127c2-50,42-88,119-113c37-12,83-31,101-42c89-51,272,34,565,262c101,79,111,90,147,163
		c22,42,41,77,44,77c2,0,14-20,25-44c14-32,20-66,20-119c0-91,23-227,51-302c11-31,41-86,64-121c37-55,43-69,35-90
		c-17-45-11-63,30-90c25-17,40-34,40-47c0-32,44-99,93-140c45-37,45-38,51-115c13-157,27-287,34-294c4-3,45,1,92,11
		c97,19,90,11,110,146c7,44,18,91,25,105c12,23,18,25,92,25c64,1,87,5,128,27c127,66,274,284,275,406c0,20-7,94-17,164
		c-26,195-19,208,168,309c113,61,160,95,167,122c3,11,25,60,49,109c55,114,55,124,1,138c-75,19-74,18-35,58c20,21,37,43,37,50
		c0,19-34,31-137,48c-141,22-138,21-151,49c-16,35-15,94,3,188c8,43,15,99,15,123c0,41,10,60,112,207c225,324,399,555,493,654
		c31,32,46,41,63,36c28-7,28-7-8,107c-16,52-30,103-30,112c0,22,17,31,115,58c111,31,109,29,80,72c-39,58-34,71,49,127l74,50l89-40
		c48-23,107-50,131-61c42-20,102-71,102-88c0-5-14-11-31-15c-42-9-102-66-138-129c-32-56-77-183-87-245c-5-33-11-40-32-43
		c-37-4-51-32-28-57c17-19,17-20-12-35c-17-9-61-50-99-92c-37-42-87-87-110-101c-36-21-43-30-43-55c0-17-11-52-25-80
		c-25-49-25-50-11-136c8-48,19-127,26-177c13-105,35-227,48-271c24-79,37-91,173-159c73-35,138-70,145-76c9-7,40-10,81-7
		c97,6,168,42,376,190c196,140,281,186,362,197c65,9,106,39,251,187c108,109,170,194,235,322c52,104,61,172,29,234
		c-43,84-115,142-207,167l-42,11l15,36c10,24,13,50,9,74c-5,33-2,45,25,82l32,43l-87,7c-48,3-92,9-100,11c-7,3-16,27-20,52
		c-6,43-10,49-43,62c-20,8-47,28-59,45l-21,30l45,129l46,129l-110,117c-60,65-117,129-126,143c-21,31-21,64,0,152l17,71l-70,67
		c-51,48-82,70-116,79l-46,13l-32,131c-17,73-32,137-33,142c-1,6,20,15,47,22c40,10,63,25,118,80l69,68l-22,18c-14,11-39,17-73,17
		c-29,0-61,6-72,14c-18,14-18,15,6,24c36,14,52,36,48,68c-3,25,1,28,47,41c83,23,80,21,56,47c-35,38-136,86-188,92
		C10138,12079,10114,12075,10084,12062z"/>
	<path d="M3056,11284c-3-9-6-24-6-35c0-24-8-24-36,2l-23,21l-67-31c-91-43-181-98-188-116c-15-40,26-76,119-105c58-18,61-25,21-55
		c-30-23-41-26-76-20c-63,11-155,8-179-5c-27-14-41-47-34-83c5-26,8-27,62-27c79,0,121-27,121-76c0-28-8-44-35-71
		c-34-34-38-35-89-29c-63,7-71,0-78-65l-5-47l55-6c83-10,144-49,229-146c84-95,148-141,208-148c24-2,84,6,150,23
		c134,32,232,42,275,27c27-10,38-8,73,10c23,11,111,40,197,65c177,50,241,77,292,122c73,63,89,160,43,251c-30,60-32,91-5,108
		c26,16,26,59,0,92c-19,24-20,25-49,9l-29-17l-6,37c-6,42-36,78-71,87c-39,10-54-2-66-51c-13-50-20-55-34-23c-18,38-40,44-82,23
		c-21-11-41-21-45-23c-5-2-8,4-8,12c0,33-59,56-140,55c-94-1-122-9-135-37c-14-31-27-28-15,4c13,33,13,71,0,79c-6,4-34,3-63,0
		c-52-7-53-8-82-63c-28-53-33-57-68-60l-38-3l31,60c46,93,36,186-27,241C3116,11303,3066,11310,3056,11284z"/>
	<path d="M10408,8669c-88-10-236-47-322-79c-32-12-93-46-135-74c-97-66-103-88-39-149c42-40,43-42,39-100c-5-96,24-111,119-62
		c33,17,34,17,51-6c16-21,16-26,2-52c-18-36-19-135-3-230c15-81,3-119-40-137c-61-25-124,7-195,101l-46,59h-69c-38,0-80,4-94,10
		c-22,8-29,5-60-32c-66-77-189-344-182-395c2-16,13-49,25-74c11-25,28-93,37-150c14-93,19-107,46-133c31-28,32-28,123-22
		c105,8,105,8,105-70c0-28-9-63-25-95c-22-43-25-57-19-113l6-63l-40-10c-39-10-40-10-56,24l-17,35l-87-6c-135-10-249-26-339-48
		c-96-23-103-20-202,62c-39,32-70,50-87,50c-45,0-205-59-309-114c-55-30-152-81-215-115s-137-69-163-79c-28-10-74-39-108-70
		c-54-49-59-52-59-30c0,37-25,63-82,88c-29,12-54,24-56,25c-2,2,8,14,22,28c14,15,26,36,26,49c0,37-52,130-85,150c-39,24-48,23-84-8
		c-38-32-40-66-6-84c33-17,32-24-8-54c-76-58-198-87-264-63c-20,7-27,2-54-41c-30-49-31-49-67-41c-20,5-40,9-44,9c-5,0-8,16-8,35
		c0,34-1,34-67,54c-38,11-92,25-120,31c-29,7-53,15-53,18c1,4,7,18,15,32s14,42,15,63c0,37-2,39-62,67c-35,17-69,30-76,30
		c-8,0,15,31,50,69c66,72,147,198,175,274c15,41,23,47,99,85c110,55,102,76-36,102c-30,6-58,14-63,19s4,44,23,93
		c30,76,52,208,36,208c-24,0-110-56-124-81c-15-26-22-29-67-29c-27,0-79-3-115-6l-65-7l-50-69c-27-37-51-75-53-83c-6-25,26-28,61-6
		c46,28,108,36,162,21c25-7,45-16,45-20c0-14-91-51-139-57c-28-3-72,1-110,11c-35,9-66,14-69,11s-6-97-6-208c-1-193,0-204,22-238
		c19-31,22-50,22-127c0-98,19-169,64-235c21-31,22-37,10-66c-16-38-56-60-78-42s-36,5-36-33c0-18-5-47-11-65c-10-27-15-31-49-31
		s-44,6-89,57l-50,56l-57-44c-31-24-61-51-67-60c-8-13-17-14-46-8c-77,19-259-17-324-63c-31-22-31-18-11-143c4-32,1-46-16-68
		c-20-25-28-28-74-25l-51,3l-10,89l-10,88l-33-53c-18-30-55-92-83-139c-63-106-94-139-194-205c-86-56-135-98-135-115c0-5-7-10-15-10
		c-18,0-253-96-271-111c-9-7-19-7-31-1c-22,12-184,0-225-16c-30-12-45-38-88-148c-47-122-87-161-197-194c-34-10-48-10-73,0
		c-42,17-63,5-120-70c-50-68-73-74-138-41c-48,25-65,54-67,116c-2,27-3,51-4,52c0,1-23-5-51-13c-47-14-52-14-88,7
		c-45,26-61,22-97-24c-33-45-37-120-7-171c17-29,18-40,10-84c-6-28-19-60-30-72c-19-20-27-21-117-15c-53,4-103,8-111,11
		c-8,2-27,24-42,49l-27,45l-238-5l-238-5l-28-32c-15-18-27-38-27-45s19-22,42-34l43-22l-44-19c-24-10-54-21-67-24s-24-10-24-16
		c0-21,31-67,69-101c40-36,42-37,100-31c52,6,64,3,111-22c64-35,120-102,167-200c27-57,42-75,71-90c20-11,39-20,41-21
		c2-2-8-21-23-43c-14-22-26-42-26-46s14-34,30-68c23-47,34-89,46-181c8-66,22-146,30-177c14-56,14-57-12-95c-33-49-109-209-165-348
		c-41-103-49-115-124-190c-66-66-202-179-251-208c-6-4-43,4-81,17c-39,13-135,38-214,56c-280,62-332,78-470,144
		c-137,66-220,92-266,83c-14-3-44,3-67,13c-22,10-80,25-128,34c-93,16-124,29-198,82c-33,23-58,34-83,34c-51,0-64-7-97-55l-29-42
		l-90-6c-134-8-180-37-210-130c-12-34-10-41,13-83c14-26,26-53,26-62c0-8-22-41-49-71c-26-31-51-65-55-77c-6-19-44-50-213-173
		c-40-29-73-57-73-61c0-5,9-25,21-45c29-49,19-76-49-128c-91-71-114-100-119-151c-5-44-14-54-269-313c-145-147-264-271-264-276
		s7-36,16-70c18-71,43-122,80-166c26-32,27-33,11-66c-9-19-41-52-72-75c-59-44-68-67-39-108c30-44,11-85-83-183c-52-54-83-93-77-99
		c5-4,119-27,254-50l244-41l51-48c27-26,88-74,135-106c149-105,216-188,236-298c15-83,88-92,349-43c237,46,377,54,539,32
		c91-12,124-20,141-36c28-26,47-25,82,4c21,17,45,24,99,29c55,4,109,20,229,67c87,34,197,71,244,82s101,27,119,36c31,15,32,17,26,57
		l-6,42l69,43c37,24,124,73,192,108c106,56,125,70,138,99c26,64,27,122,3,203c-33,110-30,177,11,246c43,71,144,167,297,283
		c67,50,150,118,184,150c80,74,108,88,203,100c67,8,101,21,249,93l171,83h100c55,0,106,4,112,8c7,4,19,29,26,55c13,43,17,47,52,53
		c46,8,65,31,65,80c0,27-5,38-18,42c-22,5-32,45-32,128c0,113,61,220,152,268l43,23l115-52c180-81,178-80,246-64c32,7,65,14,71,14
		c7,0,38-23,69-51s72-57,90-65c45-19,206-19,242,0c15,8,92,83,171,166c128,135,147,151,171,147c34-7,110,24,230,95
		c52,30,114,65,137,76l41,22l55-25c30-14,77-31,103-37c48-12,51-15,127-129c91-135,106-173,114-287c10-135,49-180,323-362
		c123-82,174-123,249-202c123-129,162-152,251-150c59,1,74-3,113-28c37-23,52-42,82-105c34-71,40-78,88-100c29-14,88-30,132-38
		l80-13l3-35c3-49,34-151,46-154c6-2,37-8,68-14c42-9,68-22,102-53c74-64,110-139,171-356c30-105,31-103-45-138c-32-14-37-23-49-73
		c-7-31-25-85-39-120c-24-62-25-64-7-77c41-30,101-12,152,46c24,26,70,136,98,232c18,62,46,93,119,130c74,37,78,43,71,122
		c-9,107-12,116-39,116c-18,0-99,46-159,91c-19,14,71,208,130,278l29,33l63-16c35-9,91-31,125-49c58-30,171-130,195-172
		c11-20,11-20,26-1c24,31,29,97,10,144c-35,86-95,125-425,277c-168,77-350,176-350,189c0,6,20,36,45,66s45,58,45,61
		c0,16-89,29-197,29c-94,0-132,4-178,20c-182,63-297,205-329,407c-23,141-49,179-211,301c-55,42-113,90-129,107
		c-59,63-70,129-35,213c20,49,21,53,5,92c-22,55-21,142,2,162c9,9,76,50,149,92l132,75l45-19c24-11,56-21,70-22s26-5,26-8
		s-15-32-33-65l-32-60l28-55c15-30,32-74,37-97c8-30,15-41,25-37c20,8,75,93,75,116c0,11,14,34,31,51l32,31l26-34
		c26-35,50-58,106-104c29-24,30-27,30-113c0-48,5-96,10-105c6-9,31-32,57-52c30-23,49-46,53-66c8-37,53-75,127-108
		c51-21,59-29,69-63l12-38h57c109,1,194-40,320-152c54-48,82-66,118-75c77-17,229-105,301-173c36-34,40-34,115-15c23,5,26,3,26-20
		c0-19,6-27,24-32c23-5,24-8,19-82c-5-73-3-83,41-196l47-118l-35-67l-34-67l17-50c23-69,78-141,159-207c106-87,129-116,136-169
		c5-36,15-53,38-73c50-42,107-66,196-85l84-16l-27-18c-15-10-33-33-41-52c-13-30-13-38,1-64c18-35,67-73,114-89c47-15,193-14,336,4
		c159,20,225,20,225,0c0-32-30-73-61-84c-45-16-84-14-201,9c-133,26-232,26-278,1c-45-24-80-89-80-151c0-71,24-94,126-125
		c55-17,88-33,94-46c6-10,13-74,15-141c5-106,8-125,26-144c27-29,70-46,105-42c34,4,74,57,74,99c0,16,3,29,8,29c4,0,38-43,76-95
		s72-95,77-95c16,0,37,45,43,94c3,27,8,52,11,54c3,3,36-25,74-61c43-42,77-67,91-67c22,0,22,3,18,79c-5,94-28,136-102,191
		c-93,69-87,60-80,116l7,52l93-45c133-64,204-62,204,8c0,35-30,56-127,93l-73,28v74v75l28-15c16-8,50-20,77-27c30-7,70-30,108-61
		c71-57,100-67,136-47c42,24,37,44-28,112c-34,35-61,71-61,80c0,32-79,93-201,158c-148,78-212,135-258,232c-35,75-49,127-34,127
		c5,0,43-11,83-25c88-30,106-31,119-6c16,29-15,61-127,129c-54,33-117,81-140,106c-47,51-49,66-32,191c14,97,18,105,45,105
		c31,0,68-48,141-183c81-151,141-199,178-145c20,29,20,82,1,98c-25,20-57,70-47,70c6,0,40-27,76-60c69-62,89-70,121-46
		c21,15,26,7-90,142c-54,64-21,63,86-3c73-45,93-53,100-42c21,34,5,68-64,132c-32,29-39,39-19,26c45-32,61-19,90,67
		c13,38,33,79,44,91c23,25,127,63,170,63c16,0,65,10,111,21c63,17,99,20,161,16c47-3,88-1,102,5c13,6,27,9,30,6c3-4-11-43-30-88
		c-35-79-44-120-28-120c20,0,190,114,225,151c30,31,38,46,35,69c-2,26,4,34,52,65c90,57,134,74,286,116c171,46,195,57,211,99l12,31
		l-117,56c-121,58-163,90-341,260l-76,73l33,60c30,56,33,69,36,163c2,70,12,137,31,214l28,112l-21,163c-12,97-17,165-11,169
		c5,3,56,52,114,108l104,103l-14,32c-51,117-85,199-83,201s27-2,56-8c33-7,55-7,61-1c5,5,15,50,24,100c27,164,92,266,202,316
		c41,19,67,23,151,23h102l6,230c3,127,9,367,12,533l6,304l-26-17c-37-24-139-16-276,23c-191,53-229,57-309,33c-87-26-91-26-150,4
		c-27,13-69,29-93,35l-45,12l10,55c9,53,9,55-22,87c-21,21-39,57-52,99c-19,64-36,85-109,137c-18,13-22,29-27,118l-6,104l64-42
		c35-23,68-45,74-51c17-16,42-10,59,16c10,14,28,30,42,35c53,20,17,128-64,192c-26,21-75,58-108,82c-34,24-75,61-90,82l-29,38l3,152
		l3,152l-31,35c-37,43-82,69-217,126c-61,26-120,59-146,82c-50,44-270,285-305,334l-23,32l21,64c73,217,14,297-241,327
		c-41,5-94,19-117,31l-43,22l59,47c64,51,103,98,96,116c-2,6-19,20-36,31s-42,27-55,35c-29,19-29,35,1,63c13,12,26,33,30,47
		s14,42,23,63c16,36,15,39-3,57c-17,17-123,42-164,39C10492,8678,10451,8673,10408,8669z"/>
	<path d="M4150,8365c-25-8-57-27-71-42c-28-30-59-101-59-135c0-20,3-21,65-15c71,7,146,35,182,69c25,24,38,75,29,113
		c-6,22-11,25-54,24C4216,8379,4175,8372,4150,8365z"/>
	<path d="M4465,8273c-50-6-113-53-251-189l-103-101l-32,33c-43,44-88,59-134,44c-19-6-35-15-35-20s18-42,41-84c27-50,52-82,75-96
		c19-12,34-23,34-24s-42-24-94-50c-111-56-181-119-197-178c-15-59-8-68,54-68c96,0,147-11,147-31c0-9-35-71-78-136s-81-123-85-130
		c-6-9,0-9,25-1c105,34,148,42,159,31c16-16-12-62-60-98c-42-31-50-51-28-77c40-49,95-59,202-34c87,21,120,22,139,7
		c30-25,16-82-37-153l-21-28l22-62c38-108,29-140-62-226c-66-63-71-63-200-1c-49,24-89,37-99,33c-21-8-22-56-3-112l15-41l-42-3
		c-62-4-61-30,2-69c56-34,61-48,31-96c-29-48-83-78-200-113c-57-17-107-34-111-38c-15-17-51-123-46-135c4-11,43-15,157-20l152-6
		l27-32c25-30,31-32,94-33c37-1,67-4,67-7c0-11-67-67-99-83c-25-14-36-13-117,9c-49,14-96,23-105,20c-18-6-94-84-119-123
		c-12-17-64-39-228-93c-212-71-213-71-195-91c48-54,150-62,321-23c61,14,125,25,142,25c23,0,33-6,42-25c6-14,15-25,20-25
		c4,0,30,16,57,35c98,71,147,78,212,29c43-31,73-30,189,6c51,17,97,30,102,30c4,0,21-20,38-45c42-61,93-99,123-91c28,7,47,44,47,92
		c0,29,3,34,18,30c96-29,202-33,306-11c95,20,226,95,226,130c0,21-35,44-95,65c-33,11-63,24-68,29s13,24,40,44c27,19,57,45,67,56
		c11,12,29,21,40,21c53,0,197,90,246,153c19,24,21,31,10,57c-17,41-81,97-127,109c-21,6-86,11-145,11c-63,0-108,4-108,10
		c0,5,23,67,51,137c89,218,81,304-37,412l-65,60l6,44c8,53-2,63-50,47c-35-12-75-1-75,20c0,6,18,52,39,103c48,113,57,157,41,198
		c-13,30-55,59-85,59c-10,0-29,9-45,20c-15,11-39,24-54,30c-26,9-26,10-12,45c27,64,73,118,220,263c139,137,166,173,152,207
		c-14,38-140,45-326,20c-58-8-109-15-115-15c-22,0,99,109,222,201c72,54,134,103,137,107c2,4,1,14-4,22c-7,12-41,15-167,16
		C4576,8277,4487,8275,4465,8273z"/>
	<path d="M3392,7334c-66-17-101-35-131-68c-16-17-35-26-56-26c-40,0-74-32-56-54c6-8,27-17,46-20c30-6,35-11,35-35c0-23-7-31-41-46
		c-33-15-44-16-57-7c-71,52-203,76-276,52c-47-15-106-66-106-90c0-11,9-25,19-32c11-8,25-26,32-41c16-36,1-52-64-67
		c-82-18-87-21-87-34c0-21,39-65,72-82c17-9,62-21,102-28l71-12l-56-19c-67-21-101-15-117,21c-17,35-34,26-54-30c-9-27-19-50-22-53
		s-26,2-52,11s-56,16-66,16c-27,0-58-36-58-68c0-22,7-32,32-43l32-15l-62-14c-34-7-67-19-73-26c-12-14-1-42,25-64c23-19,20-32-20-78
		c-19-23-34-49-32-58c2-10,44-34,103-61l100-44l120,11c179,16,351,39,430,57c146,33,290,105,355,179c67,77,116,215,108,302l-5,47
		l96,65l96,65l1,115c1,88-2,125-16,160c-23,58-39,68-85,51c-24-8-40-9-48-3c-7,6-34,16-61,23c-42,10-47,14-43,35c4,22,1,24-37,23
		C3464,7349,3421,7342,3392,7334z"/>
	<path d="M6315,2544c-153-125-171-145-191-226c-11-42-19-108-19-154c0-70,4-86,26-120c32-48,119-99,154-90c33,8,99,98,131,176
		c51,126,68,299,40,394c-14,44-41,87-55,85C6398,2609,6359,2580,6315,2544z"/>
	<path d="M6240,1855c-25-20-88-60-141-90c-127-72-133-84-131-283c1-121-3-161-24-255c-28-123-36-229-17-248c9-9,24-8,65,1
		c41,10,65,25,110,67c58,56,80,62,108,28c7-8,16-15,21-15c11,0,46,71,88,177l33,82l-27,70c-33,82-29,111,19,140c41,26,50,72,35,176
		c-10,76-55,179-79,182C6292,1889,6265,1874,6240,1855z"/>
	<path d="M8067,699c-31-4-122-27-202-50c-178-51-253-52-348-5l-58,28l-67-20c-37-11-93-25-124-32c-84-17-119-44-143-112
		c-23-68-17-84,53-141c73-58,201-120,444-213c123-47,261-102,307-122l84-36l24,30c52,63,58,83,53,184c-9,213-7,263,16,295
		c28,40,43,89,46,150C8155,712,8155,712,8067,699z"/>
</g>
</svg>
