<?xml version="1.0" encoding="utf-8"?>
<!-- Generator: Adobe Illustrator 24.0.2, SVG Export Plug-In . SVG Version: 6.00 Build 0)  -->
<svg version="1.1" id="Ebene_1" xmlns="http://www.w3.org/2000/svg" xmlns:xlink="http://www.w3.org/1999/xlink" x="0px" y="0px"
	 viewBox="0 0 512 512" style="enable-background:new 0 0 512 512;" xml:space="preserve">
<path d="M0,405.95v42.7c0,35.3,86,64,192,64s192-28.7,192-64v-42.7c-41.3,29.1-116.8,42.7-192,42.7S41.3,435.05,0,405.95z
	 M320,128.65c106,0,192-28.7,192-64s-86-64-192-64s-192,28.7-192,64S214,128.65,320,128.65z M0,301.05v51.6c0,35.3,86,64,192,64
	s192-28.7,192-64v-51.6c-41.3,34-116.9,51.6-192,51.6S41.3,335.05,0,301.05z M416,312.05c57.3-11.1,96-31.7,96-55.4v-42.7
	c-23.2,16.4-57.3,27.6-96,34.5V312.05z M192,160.65c-106,0-192,35.8-192,80s86,80,192,80s192-35.8,192-80S298,160.65,192,160.65z
	 M411.3,216.95c60-10.8,100.7-32,100.7-56.3v-42.7c-35.5,25.1-96.5,38.6-160.7,41.8C380.8,174.05,402.5,193.25,411.3,216.95z"/>
</svg>
