<?xml version="1.0" encoding="utf-8"?>
<!-- Generator: Adobe Illustrator 24.0.2, SVG Export Plug-In . SVG Version: 6.00 Build 0)  -->
<svg version="1.1" id="Ebene_1" xmlns="http://www.w3.org/2000/svg" xmlns:xlink="http://www.w3.org/1999/xlink" x="0px" y="0px"
	 viewBox="0 0 384 512" style="enable-background:new 0 0 384 512;" xml:space="preserve">
<path d="M362.23,103.08L281.95,21.9c-8.61-8.71-20.29-13.64-32.44-13.64H54.21C28.85,8.36,8.27,29.16,8.27,54.8v402.5
	c0,25.64,20.57,46.44,45.93,46.44h275.59c25.36,0,45.93-20.8,45.93-46.44V135.98C375.73,123.69,370.85,111.79,362.23,103.08z
	 M340.61,125.04c2.01,2.03,3.35,4.45,4.02,7.16h-91.38V39.8c2.68,0.68,5.07,2.03,7.08,4.06L340.61,125.04z M329.79,472.78H54.21
	c-8.42,0-15.31-6.97-15.31-15.48V54.8c0-8.51,6.89-15.48,15.31-15.48h168.41v100.62c0,12.87,10.24,23.22,22.97,23.22h99.52V457.3
	C345.1,465.81,338.21,472.78,329.79,472.78z M283.86,236.7v7.74c0,6.39-5.17,11.61-11.48,11.61H111.62
	c-6.32,0-11.48-5.22-11.48-11.61v-7.74c0-6.39,5.17-11.61,11.48-11.61h160.76C278.7,225.09,283.86,230.31,283.86,236.7z
	 M283.86,298.62v7.74c0,6.39-5.17,11.61-11.48,11.61H111.62c-6.32,0-11.48-5.22-11.48-11.61v-7.74c0-6.39,5.17-11.61,11.48-11.61
	h160.76C278.7,287.01,283.86,292.23,283.86,298.62z M283.86,360.54v7.74c0,6.39-5.17,11.61-11.48,11.61H111.62
	c-6.32,0-11.48-5.22-11.48-11.61v-7.74c0-6.39,5.17-11.61,11.48-11.61h160.76C278.7,348.93,283.86,354.16,283.86,360.54z"/>
</svg>
