<?xml version="1.0" encoding="utf-8"?>
<!-- Generator: Adobe Illustrator 24.0.2, SVG Export Plug-In . SVG Version: 6.00 Build 0)  -->
<svg version="1.1" id="Layer_1" focusable="false" xmlns="http://www.w3.org/2000/svg" xmlns:xlink="http://www.w3.org/1999/xlink"
	 x="0px" y="0px" viewBox="0 0 512 512" style="enable-background:new 0 0 512 512;" xml:space="preserve">
<path d="M349.32,52.26C328.28,35.49,292.94,0,256,0c-36.67,0-71.45,34.77-93.31,52.26c-34.59,27.45-109.53,87.9-145.1,117.01
	C6.46,178.39,0,192.02,0,206.42V464c0,26.51,21.49,48,48,48h416c26.51,0,48-21.49,48-48V206.41c0-14.39-6.46-28.03-17.6-37.14
	C458.83,140.16,383.91,79.71,349.32,52.26z M464,480H48c-8.84,0-16-7.16-16-16V206.16c0-4.81,2.15-9.35,5.88-12.39
	c26.28-21.45,121.78-98.24,144.71-116.45C200.21,63.27,232.32,32,256,32c23.69,0,55.79,31.27,73.41,45.32
	c22.93,18.21,118.44,95.01,144.71,116.47c3.72,3.04,5.88,7.59,5.88,12.39V464C480,472.84,472.84,480,464,480L464,480z
	 M455.25,263.69c4.19,5.16,3.39,12.73-1.78,16.9c-22.83,18.43-55.14,44.24-104.16,83.15c-21.05,16.8-56.87,52.52-93.32,52.26
	c-36.58,0.26-72.83-35.91-93.32-52.26c-49.01-38.91-81.32-64.72-104.15-83.14c-5.17-4.17-5.97-11.75-1.78-16.9l5.05-6.21
	c4.17-5.13,11.7-5.93,16.85-1.77c22.76,18.38,55.01,44.14,103.94,82.98c16.85,13.44,50.2,45.69,73.41,45.32
	c23.22,0.37,56.56-31.88,73.41-45.32c48.93-38.84,81.18-64.61,103.94-82.98c5.14-4.15,12.68-3.36,16.85,1.77L455.25,263.69z"/>
</svg>
