<?xml version="1.0" encoding="utf-8"?>
<!-- Generator: Adobe Illustrator 24.0.2, SVG Export Plug-In . SVG Version: 6.00 Build 0)  -->
<svg version="1.1" id="Layer_1" xmlns="http://www.w3.org/2000/svg" xmlns:xlink="http://www.w3.org/1999/xlink" x="0px" y="0px"
	 viewBox="0 0 500 500" style="enable-background:new 0 0 500 500;" xml:space="preserve">
<g>
	<path d="M244.68,500c0-16.05,0-32.09,0-48.28c85.16,0,170.01,0,255.27,0c0,16.08,0,32.18,0,48.28C414.85,500,329.77,500,244.68,500
		z"/>
	<path d="M311.46,0c7.76,2.77,13.85,7.58,19.07,13.6c3.38,3.9,4.46,8.24,1.92,12.53c-3.28,5.51-6.83,11.02-11.18,15.79
		c-21.37,23.44-44.43,45.36-68.61,66.19c-9.08,7.82-18.47,15.38-28.26,22.39c-8.23,5.89-7.86,5.99-15.93-1.1
		c-3.39-2.98-6.2-6.59-9.07-10.06c-3.58-4.32-4.42-9.33-1.68-14.12c3.09-5.42,6.38-10.92,10.62-15.54
		c27.38-29.78,56.29-58.12,89.02-82.74c3.41-2.57,7.23-4.65,10.87-6.95C309.3,0,310.38,0,311.46,0z"/>
	<path d="M225.45,144.08c9.84-9.47,19.67-19.15,29.75-28.58c26.11-24.44,52.3-48.79,78.53-73.11c3.39-3.14,7.23-5.85,10.79-8.83
		c1.64-1.37,3.06-1.36,4.68,0.01c6.29,5.32,12.89,10.34,18.9,15.93c33.79,31.48,67.44,63.08,101.13,94.65
		c0.32,0.3,0.58,0.64,0.75,0.82c-40.52,38.38-80.99,76.73-121.51,115.12C303.87,225.16,261.22,188.12,225.45,144.08z"/>
	<path d="M0,429.96c-0.01-7.55,2.79-13.94,8.49-19.21c14.24-13.19,28.3-26.57,42.74-39.57c58.06-52.24,118.1-102.39,179.04-151.57
		c7.03-5.68,14.34-11.04,21.45-16.64c1.83-1.45,3.43-1.41,5.32-0.27c8.22,4.97,14.89,11.46,20.41,18.99
		c2.61,3.56,2.62,7.71,0.8,11.48c-2.3,4.76-4.65,9.68-7.99,13.78c-11.08,13.58-22.17,27.19-34.06,40.12
		c-49.21,53.54-98.85,106.72-149.95,158.66c-6.85,6.96-14,13.66-21.09,20.42c-8.23,7.84-18.28,9.88-29,6.43
		c-19.21-6.18-31.29-18.84-35.65-37.79C0.14,433.21,0.16,431.56,0,429.96z"/>
	<path d="M359.46,268.96c1.12-2.68,1.85-5.87,3.64-8.38c4.08-5.67,8.25-11.38,13.14-16.41c29.03-29.93,58.93-59.03,91.11-85.97
		c1.21-1.01,2.61-1.84,3.72-2.93c2.63-2.58,5.39-2.24,8.22-0.5c8.55,5.24,15.13,12.16,19.64,20.83c1.47,2.83,1.53,5.6-0.55,8.16
		c-5.71,6.97-11.14,14.19-17.3,20.79c-24.99,26.76-51.47,52.15-80.01,75.54c-3.79,3.1-7.97,5.78-11.97,8.64
		c-2.53,1.81-5.27,1.92-8.14,0.86c-8.33-3.05-14.64-8.44-19.51-15.39C360.5,272.84,360.23,271.06,359.46,268.96z"/>
	<path d="M365.17,443.59c-12.28-0.19-31.66-0.19-51.02-0.88c-10.9-0.39-21.76-1.79-32.61-2.99c-2.51-0.27-5.06-1.25-7.3-2.41
		c-5.43-2.8-5.54-9.4,0-12.02c3.53-1.67,7.57-2.77,11.49-3.22c8.53-1,17.14-1.95,25.72-1.99c40.64-0.2,81.27-0.29,121.91,0.04
		c10.34,0.08,20.68,1.79,31,2.88c1.74,0.18,3.45,0.92,5.08,1.6c3.09,1.3,5.14,3.42,5.13,6.83c-0.01,3.34-2.07,5.6-5.16,6.44
		c-5.22,1.43-10.55,2.82-15.93,3.37C426.47,443.97,399.35,443.26,365.17,443.59z"/>
</g>
<g>
</g>
<g>
</g>
<g>
</g>
<g>
</g>
<g>
</g>
</svg>
