<?xml version="1.0" encoding="utf-8"?>
<!-- Generator: Adobe Illustrator 24.0.2, SVG Export Plug-In . SVG Version: 6.00 Build 0)  -->
<svg version="1.1" id="Ebene_1" xmlns="http://www.w3.org/2000/svg" xmlns:xlink="http://www.w3.org/1999/xlink" x="0px" y="0px"
	 viewBox="0 0 612 792" style="enable-background:new 0 0 612 792;" xml:space="preserve">
<g>
	<path d="M305.57,692.01c0-19,0-38,0-57.16c92.62,0,184.91,0,277.63,0c0,19.04,0,38.1,0,57.16
		C490.66,692.01,398.11,692.01,305.57,692.01z"/>
	<path d="M378.2,99.99c8.44,3.28,15.07,8.98,20.74,16.1c3.68,4.62,4.85,9.76,2.09,14.83c-3.56,6.53-7.43,13.05-12.16,18.7
		c-23.25,27.75-48.32,53.71-74.62,78.37c-9.88,9.26-20.09,18.21-30.74,26.51c-8.95,6.98-8.55,7.09-17.33-1.3
		c-3.69-3.53-6.74-7.8-9.86-11.91c-3.89-5.12-4.8-11.04-1.83-16.72c3.36-6.42,6.94-12.93,11.55-18.39
		c29.78-35.26,61.22-68.81,96.82-97.96c3.71-3.04,7.87-5.5,11.82-8.23C375.86,99.99,377.03,99.99,378.2,99.99z"/>
	<path d="M284.66,270.59c10.7-11.21,21.39-22.67,32.36-33.84c28.4-28.93,56.89-57.77,85.41-86.57c3.69-3.72,7.86-6.93,11.73-10.46
		c1.79-1.63,3.33-1.62,5.09,0.01c6.84,6.3,14.02,12.24,20.55,18.86c36.75,37.27,73.34,74.69,109.99,112.07
		c0.34,0.35,0.63,0.75,0.82,0.98c-44.07,45.45-88.08,90.84-132.15,136.3C369.95,366.59,323.56,322.73,284.66,270.59z"/>
	<path d="M39.46,609.08c-0.01-8.94,3.03-16.5,9.23-22.75c15.49-15.62,30.78-31.46,46.48-46.85
		c63.14-61.86,128.45-121.23,194.73-179.47c7.65-6.72,15.6-13.07,23.33-19.7c1.99-1.71,3.73-1.67,5.78-0.32
		c8.94,5.88,16.19,13.56,22.19,22.49c2.84,4.21,2.85,9.13,0.87,13.59c-2.5,5.64-5.05,11.46-8.7,16.31
		c-12.05,16.07-24.11,32.19-37.04,47.5c-53.52,63.39-107.51,126.36-163.09,187.85c-7.45,8.24-15.23,16.18-22.93,24.17
		c-8.95,9.29-19.88,11.69-31.55,7.61c-20.89-7.31-34.03-22.31-38.77-44.75C39.6,612.92,39.63,610.98,39.46,609.08z"/>
	<path d="M430.41,418.45c1.22-3.17,2.01-6.95,3.96-9.92c4.43-6.72,8.98-13.47,14.29-19.43c31.57-35.44,64.1-69.9,99.09-101.79
		c1.31-1.2,2.84-2.18,4.05-3.47c2.86-3.05,5.86-2.65,8.94-0.6c9.3,6.2,16.46,14.39,21.36,24.66c1.6,3.35,1.67,6.64-0.6,9.66
		c-6.21,8.26-12.11,16.8-18.81,24.62c-27.18,31.69-55.98,61.74-87.02,89.45c-4.12,3.68-8.67,6.84-13.02,10.23
		c-2.75,2.14-5.73,2.27-8.86,1.02c-9.06-3.61-15.93-9.99-21.22-18.23C431.55,423.05,431.25,420.94,430.41,418.45z"/>
	<path d="M436.62,625.22c-13.35-0.22-34.44-0.23-55.49-1.04c-11.85-0.46-23.67-2.13-35.47-3.53c-2.73-0.33-5.5-1.48-7.94-2.85
		c-5.91-3.32-6.02-11.14,0-14.23c3.84-1.98,8.23-3.27,12.5-3.82c9.28-1.18,18.64-2.31,27.97-2.36c44.2-0.24,88.39-0.34,132.59,0.05
		c11.25,0.1,22.49,2.12,33.71,3.41c1.89,0.22,3.75,1.09,5.52,1.9c3.36,1.54,5.59,4.05,5.58,8.08c-0.02,3.96-2.25,6.63-5.62,7.63
		c-5.68,1.69-11.47,3.34-17.32,3.98C503.3,625.67,473.8,624.82,436.62,625.22z"/>
</g>
</svg>
