<?xml version="1.0" encoding="utf-8"?>
<!-- Generator: Adobe Illustrator 24.0.2, SVG Export Plug-In . SVG Version: 6.00 Build 0)  -->
<svg version="1.1" id="Ebene_1" xmlns="http://www.w3.org/2000/svg" xmlns:xlink="http://www.w3.org/1999/xlink" x="0px" y="0px"
	 viewBox="0 0 512 512" style="enable-background:new 0 0 512 512;" xml:space="preserve">
<path d="M346-22.9c-68.5,0-124,98.1-124,219.2s55.5,219.2,124,219.2s124-98.1,124-219.2S414.5-22.9,346-22.9z M380.7,244.9
	c0,110-83.3,200.2-187.3,200.2C90.4,445.1,6,356,6,244.9c0-110,83.3-200.2,187.3-200.2C296.3,44.7,380.7,133.8,380.7,244.9z
	 M313.1,267.4l-70.4-54.7c-2.7-2.1-4.2-5.5-4.2-9V55.8c0-6.1,4.7-11.1,10.4-11.1H261c5.7,0,10.4,5,10.4,11.1v135.6l61.1,47.5
	c4.7,3.6,5.6,10.6,2.3,15.6l-7.1,10.5C324.3,269.9,317.8,271,313.1,267.4L313.1,267.4z"/>
</svg>
