<?xml version="1.0" encoding="utf-8"?>
<!-- Generator: Adobe Illustrator 24.0.2, SVG Export Plug-In . SVG Version: 6.00 Build 0)  -->
<svg version="1.1" id="Layer_1" xmlns="http://www.w3.org/2000/svg" xmlns:xlink="http://www.w3.org/1999/xlink" x="0px" y="0px"
	 viewBox="0 0 24.52 20.25" style="enable-background:new 0 0 24.52 20.25;" xml:space="preserve">
<style type="text/css">
	.st0{clip-path:url(#SVGID_2_);fill:#FFFFFF;}
</style>
<g>
	<defs>
		<rect id="SVGID_1_" y="0" width="24.52" height="20.25"/>
	</defs>
	<clipPath id="SVGID_2_">
		<use xlink:href="#SVGID_1_"  style="overflow:visible;"/>
	</clipPath>
	<path class="st0" d="M9.6,8.64c0.05-0.22,0.12-0.43,0.2-0.63C9.77,7.77,9.58,7.6,9.35,7.6H7.82c-0.25,0-0.46,0.21-0.46,0.47v1.58
		c0,0.26,0.21,0.47,0.46,0.47h1.45L9.6,8.64z M5.67,3.8H4.14c-0.25,0-0.46,0.21-0.46,0.47v1.58c0,0.26,0.21,0.48,0.46,0.48h1.53
		c0.25,0,0.46-0.21,0.46-0.48V4.27C6.13,4.01,5.92,3.8,5.67,3.8 M21.3,13.92c-0.42,0-0.77,0.35-0.77,0.79s0.34,0.79,0.77,0.79
		c0.42,0,0.77-0.35,0.77-0.79S21.73,13.92,21.3,13.92 M11.8,13.92c-0.42,0-0.77,0.35-0.77,0.79s0.34,0.79,0.77,0.79
		c0.42,0,0.77-0.35,0.77-0.79S12.22,13.92,11.8,13.92 M5.67,11.39H4.14c-0.25,0-0.46,0.21-0.46,0.47v1.58
		c0,0.26,0.21,0.47,0.46,0.47h1.53c0.25,0,0.46-0.21,0.46-0.47v-1.58C6.13,11.61,5.92,11.39,5.67,11.39 M5.67,7.6H4.14
		c-0.25,0-0.46,0.21-0.46,0.47v1.58c0,0.26,0.21,0.47,0.46,0.47h1.53c0.25,0,0.46-0.21,0.46-0.47V8.07C6.13,7.81,5.92,7.6,5.67,7.6
		 M7.82,3.8c-0.25,0-0.46,0.21-0.46,0.47v1.58c0,0.26,0.21,0.48,0.46,0.48h1.53c0.25,0,0.46-0.21,0.46-0.48V4.27
		c0-0.26-0.21-0.47-0.46-0.47H7.82z M12.26,1.9v3.8h1.23V1.9c0-1.05-0.82-1.9-1.84-1.9H1.84C0.82,0,0,0.85,0,1.9v15.51
		c0,0.17,0.14,0.32,0.31,0.32h0.61c0.17,0,0.31-0.14,0.31-0.32V1.9c0-0.35,0.27-0.63,0.61-0.63h9.81
		C11.99,1.27,12.26,1.55,12.26,1.9 M23.29,16.53c0,0.31-0.24,0.56-0.55,0.56h-12.4c-0.3,0-0.55-0.25-0.55-0.56v-2.18
		c0-0.93,0.73-1.69,1.64-1.69h10.22c0.9,0,1.63,0.76,1.64,1.69V16.53z M11.99,9.21c0.13-0.57,0.62-0.98,1.2-0.98h6.63
		c0.57,0,1.07,0.41,1.19,0.98l0.49,2.18h-10L11.99,9.21z M22.81,11.65L22.2,8.92c-0.25-1.15-1.25-1.97-2.39-1.96h-6.63
		c-1.14-0.01-2.14,0.81-2.39,1.96l-0.62,2.79c-0.94,0.49-1.59,1.48-1.59,2.63v2.18c0,0.79,0.5,1.49,1.23,1.73v1.36
		c0,0.35,0.27,0.63,0.61,0.63h0.61c0.34,0,0.61-0.28,0.61-0.63v-1.27h9.81v1.27c0,0.35,0.27,0.63,0.61,0.63h0.61
		c0.34,0,0.61-0.28,0.61-0.63v-1.36c0.73-0.24,1.22-0.94,1.23-1.73v-2.18C24.52,13.18,23.85,12.12,22.81,11.65"/>
</g>
</svg>
