<?xml version="1.0" encoding="utf-8"?>
<!-- Generator: Adobe Illustrator 24.0.2, SVG Export Plug-In . SVG Version: 6.00 Build 0)  -->
<svg version="1.1" id="Layer_1" xmlns="http://www.w3.org/2000/svg" xmlns:xlink="http://www.w3.org/1999/xlink" x="0px" y="0px"
	 viewBox="0 0 22.31 17.35" style="enable-background:new 0 0 22.31 17.35;" xml:space="preserve">
<style type="text/css">
	.st0{clip-path:url(#SVGID_2_);fill:#FFFFFF;}
</style>
<g>
	<defs>
		<rect id="SVGID_1_" y="0" width="22.31" height="17.35"/>
	</defs>
	<clipPath id="SVGID_2_">
		<use xlink:href="#SVGID_1_"  style="overflow:visible;"/>
	</clipPath>
	<path class="st0" d="M18.59,11.15H6.2v-0.18l3.1-3.1l1.86,1.86l4.34-4.34l3.1,3.1V11.15z M16.15,4.3c-0.36-0.36-0.95-0.36-1.31,0
		l-3.68,3.68l-1.2-1.2C9.59,6.41,9,6.41,8.64,6.78l-3.41,3.41c-0.17,0.17-0.27,0.41-0.27,0.66v1.08c0,0.26,0.21,0.47,0.47,0.47
		h13.94c0.26,0,0.46-0.21,0.46-0.47V8.36c0-0.25-0.1-0.48-0.27-0.66L16.15,4.3z M6.82,3.41c0.51,0,0.93,0.42,0.93,0.93
		c0,0.51-0.42,0.93-0.93,0.93c-0.51,0-0.93-0.42-0.93-0.93C5.89,3.83,6.3,3.41,6.82,3.41 M6.82,6.51c1.2,0,2.17-0.97,2.17-2.17
		c0-1.2-0.97-2.17-2.17-2.17c-1.2,0-2.17,0.97-2.17,2.17C4.65,5.53,5.62,6.51,6.82,6.51 M21.07,13.01c0,0.34-0.28,0.62-0.62,0.62
		H4.34c-0.34,0-0.62-0.28-0.62-0.62V1.86c0-0.34,0.28-0.62,0.62-0.62h16.11c0.34,0,0.62,0.28,0.62,0.62V13.01z M18.59,15.49
		c0,0.34-0.28,0.62-0.62,0.62H1.86c-0.34,0-0.62-0.28-0.62-0.62V4.34c0-0.34,0.28-0.62,0.62-0.62h0.62v9.29
		c0,1.03,0.83,1.86,1.86,1.86h14.25V15.49z M20.45,0H4.34C3.31,0,2.48,0.83,2.48,1.86v0.62H1.86C0.83,2.48,0,3.31,0,4.34v11.15
		c0,1.03,0.83,1.86,1.86,1.86h16.11c1.03,0,1.86-0.83,1.86-1.86v-0.62h0.62c1.03,0,1.86-0.83,1.86-1.86V1.86
		C22.31,0.83,21.47,0,20.45,0"/>
</g>
</svg>
