<?xml version="1.0" encoding="utf-8"?>
<!-- Generator: Adobe Illustrator 24.0.2, SVG Export Plug-In . SVG Version: 6.00 Build 0)  -->
<svg version="1.1" id="Layer_1" xmlns="http://www.w3.org/2000/svg" xmlns:xlink="http://www.w3.org/1999/xlink" x="0px" y="0px"
	 viewBox="0 0 14.74 24" style="enable-background:new 0 0 14.74 24;" xml:space="preserve">
<style type="text/css">
	.st0{clip-path:url(#SVGID_2_);fill:#FFFFFF;}
</style>
<g>
	<defs>
		<rect id="SVGID_1_" width="14.74" height="24"/>
	</defs>
	<clipPath id="SVGID_2_">
		<use xlink:href="#SVGID_1_"  style="overflow:visible;"/>
	</clipPath>
	<path class="st0" d="M5.63,15.33l2.83,7c0.06,0.14,0.19,0.21,0.32,0.16l1.66-0.7c0.14-0.06,0.21-0.26,0.15-0.42l-2.81-6.95h5.23
		c0.23,0,0.35-0.34,0.17-0.53L1.91,1.58C1.74,1.4,1.47,1.54,1.47,1.81v17.57c0,0.27,0.27,0.41,0.44,0.22L5.63,15.33z M7.1,22.9
		l-1.93-4.77L3.01,20.6C1.95,21.81,0,21.04,0,19.38V1.81c0-1.63,1.91-2.42,2.98-1.25l11.27,12.3c1.05,1.14,0.28,3.05-1.25,3.05H9.98
		l1.97,4.88c0.38,0.93-0.05,1.99-0.94,2.37l-1.66,0.7C8.47,24.24,7.47,23.81,7.1,22.9"/>
</g>
</svg>
