<?xml version="1.0" encoding="utf-8"?>
<!-- Generator: Adobe Illustrator 24.0.2, SVG Export Plug-In . SVG Version: 6.00 Build 0)  -->
<svg version="1.1" id="Layer_1" xmlns="http://www.w3.org/2000/svg" xmlns:xlink="http://www.w3.org/1999/xlink" x="0px" y="0px"
	 viewBox="0 0 20.9 18.58" style="enable-background:new 0 0 20.9 18.58;" xml:space="preserve">
<style type="text/css">
	.st0{clip-path:url(#SVGID_2_);fill:#FFFFFF;}
</style>
<g>
	<defs>
		<rect id="SVGID_1_" y="0" width="20.9" height="18.58"/>
	</defs>
	<clipPath id="SVGID_2_">
		<use xlink:href="#SVGID_1_"  style="overflow:visible;"/>
	</clipPath>
	<path class="st0" d="M9.29,1.89l2.76,2.76H9.29V1.89z M1.74,16.83V1.74h5.8v3.77c0,0.48,0.39,0.87,0.87,0.87c0,0,0,0,0.01,0h3.02
		c0.76-0.36,1.6-0.58,2.49-0.58V4.79c0-0.46-0.18-0.91-0.51-1.23l-3.04-3.04C10.05,0.18,9.61,0,9.15,0h-7.4C0.78,0,0,0.78,0,1.74
		v15.09c0,0.96,0.78,1.74,1.74,1.74h10.45c0.74,0,1.4-0.47,1.64-1.17c-0.83-0.02-1.64-0.21-2.38-0.57H1.74z M13.93,14.51
		c-1.6,0-2.9-1.3-2.9-2.9s1.3-2.9,2.9-2.9s2.9,1.3,2.9,2.9C16.83,13.21,15.53,14.51,13.93,14.51 M20.73,17.18l-2.96-2.96
		c1.44-2.12,0.89-5.01-1.23-6.45C14.42,6.33,11.53,6.88,10.09,9c-1.44,2.12-0.89,5.01,1.23,6.45c1.58,1.07,3.64,1.07,5.22,0
		l2.96,2.95c0.23,0.23,0.59,0.23,0.82,0L20.73,18C20.95,17.77,20.95,17.4,20.73,17.18"/>
</g>
</svg>
