<?xml version="1.0" encoding="utf-8"?>
<!-- Generator: Adobe Illustrator 24.0.2, SVG Export Plug-In . SVG Version: 6.00 Build 0)  -->
<svg version="1.1" id="Layer_1" xmlns="http://www.w3.org/2000/svg" xmlns:xlink="http://www.w3.org/1999/xlink" x="0px" y="0px"
	 viewBox="0 0 24.42 19.53" style="enable-background:new 0 0 24.42 19.53;" xml:space="preserve">
<style type="text/css">
	.st0{clip-path:url(#SVGID_2_);fill:#FFFFFF;}
</style>
<g>
	<defs>
		<rect id="SVGID_1_" y="0" width="24.42" height="19.53"/>
	</defs>
	<clipPath id="SVGID_2_">
		<use xlink:href="#SVGID_1_"  style="overflow:visible;"/>
	</clipPath>
	<path class="st0" d="M10.68,7.32c0.17,0,0.3-0.14,0.3-0.31V6.41c0-0.17-0.14-0.31-0.3-0.31H1.53c-0.17,0-0.31,0.14-0.31,0.31v0.61
		c0,0.17,0.14,0.31,0.31,0.31H10.68z M9.77,9.46V8.85c0-0.17-0.14-0.31-0.31-0.31H0.3C0.14,8.55,0,8.68,0,8.85v0.61
		c0,0.17,0.14,0.31,0.3,0.31h9.16C9.63,9.77,9.77,9.63,9.77,9.46 M21.36,13.85c-0.66-0.99-1.78-1.64-3.05-1.64
		c-0.94,0-1.79,0.37-2.44,0.95v-2.78h5.49V13.85z M18.31,17.7c-1.01,0-1.83-0.82-1.83-1.83s0.82-1.83,1.83-1.83
		c1.01,0,1.83,0.82,1.83,1.83S19.32,17.7,18.31,17.7 M15.87,5.49h1.38c0.24,0,0.48,0.1,0.65,0.27l2.78,2.78h-4.81V5.49z M6.1,17.7
		c-1.01,0-1.83-0.82-1.83-1.83s0.82-1.83,1.83-1.83c1.01,0,1.83,0.82,1.83,1.83S7.11,17.7,6.1,17.7 M23.81,14.04H23.2V9.61
		c0-0.73-0.29-1.43-0.81-1.94l-3.2-3.2c-0.51-0.51-1.22-0.81-1.94-0.81h-1.38V2.14c0-1.18-0.96-2.14-2.14-2.14H4.58
		C3.4,0,2.44,0.96,2.44,2.14v1.53H0.3C0.14,3.66,0,3.8,0,3.97v0.61c0,0.17,0.14,0.31,0.3,0.31h9.16c0.17,0,0.31-0.14,0.31-0.31V3.97
		c0-0.17-0.14-0.31-0.31-0.31H4.27V2.14c0-0.17,0.14-0.31,0.31-0.31h9.16c0.17,0,0.3,0.14,0.3,0.31v11.9H9.26
		c-0.63-1.09-1.8-1.83-3.16-1.83c-0.67,0-1.29,0.19-1.83,0.51v-1.73H2.44v4.88c0,2.02,1.64,3.66,3.66,3.66
		c2.02,0,3.66-1.64,3.66-3.66h4.88c0,2.02,1.64,3.66,3.66,3.66s3.66-1.64,3.66-3.66h1.83c0.34,0,0.61-0.27,0.61-0.61v-0.61
		C24.42,14.31,24.14,14.04,23.81,14.04"/>
</g>
</svg>
