<?xml version="1.0" encoding="utf-8"?>
<!-- Generator: Adobe Illustrator 24.0.2, SVG Export Plug-In . SVG Version: 6.00 Build 0)  -->
<svg version="1.1" id="Layer_1" xmlns="http://www.w3.org/2000/svg" xmlns:xlink="http://www.w3.org/1999/xlink" x="0px" y="0px"
	 viewBox="0 0 22.31 17.85" style="enable-background:new 0 0 22.31 17.85;" xml:space="preserve">
<style type="text/css">
	.st0{clip-path:url(#SVGID_2_);fill:#FFFFFF;}
</style>
<g>
	<defs>
		<rect id="SVGID_1_" y="0" width="22.32" height="17.85"/>
	</defs>
	<clipPath id="SVGID_2_">
		<use xlink:href="#SVGID_1_"  style="overflow:visible;"/>
	</clipPath>
	<path class="st0" d="M20.93,4.46c-0.11,0-0.21,0.04-0.29,0.12l-3.65,3.63l-1.59-1.6l0,0c-0.08-0.08-0.19-0.12-0.29-0.12
		s-0.21,0.04-0.29,0.12l-0.98,0.97l0,0c-0.16,0.16-0.16,0.42,0,0.59l2.85,2.87l0,0c0.08,0.08,0.19,0.12,0.29,0.12
		c0.11,0,0.21-0.04,0.29-0.12l4.93-4.89c0.16-0.16,0.16-0.42,0-0.59l-0.97-0.98l0,0C21.15,4.5,21.04,4.46,20.93,4.46"/>
	<path class="st0" d="M10.93,10.04h-0.58c-1.61,0.74-3.47,0.74-5.08,0H4.69C2.1,10.04,0,12.14,0,14.73v1.45
		c0,0.92,0.75,1.67,1.67,1.67h12.27c0.92,0,1.67-0.75,1.67-1.67v-1.45C15.62,12.14,13.52,10.04,10.93,10.04 M7.81,8.93
		c2.46,0,4.46-2,4.46-4.46S10.28,0,7.81,0S3.35,2,3.35,4.46S5.35,8.93,7.81,8.93"/>
</g>
</svg>
