<?xml version="1.0" encoding="utf-8"?>
<!-- Generator: Adobe Illustrator 24.1.1, SVG Export Plug-In . SVG Version: 6.00 Build 0)  -->
<svg version="1.1" id="Ebene_1" xmlns="http://www.w3.org/2000/svg" xmlns:xlink="http://www.w3.org/1999/xlink" x="0px" y="0px"
	 viewBox="0 0 640 512" style="enable-background:new 0 0 640 512;" xml:space="preserve">
<path d="M217.52,455.07C203.63,439,196,418.48,196,397.24v-28.69c-0.05-30.86,15.87-59.55,42.09-75.84l7.55-20.71H224
	c-6.63,0-12-5.37-12-12v-40c0-6.63,5.37-12,12-12h40c3.75,0.05,7.25,1.87,9.43,4.92c20.03-26.84,49.58-44.99,82.57-50.74V32
	c0-17.67-14.33-32-32-32H36C18.33,0,4,14.33,4,32v464c0,8.84,7.16,16,16,16h205.06c-4.88-8.78-7.47-18.65-7.54-28.69V455.07z
	 M212,92c0-6.63,5.37-12,12-12h40c6.63,0,12,5.37,12,12v40c0,6.63-5.37,12-12,12h-40c-6.63,0-12-5.37-12-12V92z M148,388
	c0,6.63-5.37,12-12,12H96c-6.63,0-12-5.37-12-12v-40c0-6.63,5.37-12,12-12h40c6.63,0,12,5.37,12,12V388z M148,260
	c0,6.63-5.37,12-12,12H96c-6.63,0-12-5.37-12-12v-40c0-6.63,5.37-12,12-12h40c6.63,0,12,5.37,12,12V260z M148,132
	c0,6.63-5.37,12-12,12H96c-6.63,0-12-5.37-12-12V92c0-6.63,5.37-12,12-12h40c6.63,0,12,5.37,12,12V132z M608.58,315.56L604,304.2
	l-17.87-49.08c-15.13-38.2-52.11-63.24-93.2-63.12H379.07c-41.1-0.14-78.1,24.91-93.24,63.12L268,304.2l-4.55,11.35
	c-21.43,8.89-35.41,29.8-35.42,53v28.69c0.05,17.32,7.96,33.68,21.52,44.46v41.61c0,15.83,12.83,28.67,28.66,28.69h28.69
	c15.84-0.01,28.68-12.85,28.68-28.69V448h200.83v35.31c0.01,15.84,12.85,28.68,28.69,28.69h28.69
	c15.84-0.01,28.68-12.85,28.69-28.69V441.7c13.56-10.78,21.47-27.14,21.52-44.46v-28.69C643.99,345.35,630.01,324.44,608.58,315.56
	L608.58,315.56z M339.11,284c6.53-16.92,22.36-28,40-28h113.82c17.6,0,33.42,11.1,40,28L545,320H327L339.11,284z M304,407.85
	c-14.4,0-24-9.57-24-23.93S289.6,360,304,360s36,21.53,36,35.89S318.4,407.85,304,407.85z M568,407.85c-14.4,0-36,2.39-36-12
	S553.6,360,568,360s24,9.57,24,23.92S582.4,407.85,568,407.85z"/>
</svg>
