<?xml version="1.0" encoding="utf-8"?>
<!-- Generator: Adobe Illustrator 24.0.2, SVG Export Plug-In . SVG Version: 6.00 Build 0)  -->
<svg version="1.1" id="Ebene_1" xmlns="http://www.w3.org/2000/svg" xmlns:xlink="http://www.w3.org/1999/xlink" x="0px" y="0px"
	 viewBox="0 0 612 792" style="enable-background:new 0 0 612 792;" xml:space="preserve">
<g>
	<path d="M299.92,653.99c0-17.36,0-34.72,0-52.24c97.08,0,193.82,0.01,291.01,0.01c0,17.4,0,34.82,0,52.24
		C493.93,654,396.93,653.99,299.92,653.99z"/>
	<path d="M376.07,113c8.84,3,15.79,8.21,21.74,14.72c3.85,4.22,5.09,8.92,2.19,13.56c-3.73,5.97-7.79,11.93-12.75,17.09
		c-24.37,25.36-50.65,49.08-78.22,71.61c-10.35,8.46-21.06,16.64-32.22,24.23c-9.39,6.38-8.96,6.48-18.17-1.19
		c-3.87-3.22-7.06-7.13-10.34-10.88c-4.08-4.68-5.03-10.09-1.92-15.28c3.52-5.86,7.28-11.82,12.11-16.81
		c31.21-32.22,64.18-62.88,101.49-89.51c3.89-2.78,8.25-5.03,12.39-7.52C373.62,113,374.85,113,376.07,113z"/>
	<path d="M278.02,268.89c11.22-10.25,22.42-20.72,33.92-30.93c29.77-26.44,59.63-52.79,89.53-79.1c3.87-3.4,8.24-6.33,12.3-9.56
		c1.87-1.49,3.49-1.48,5.33,0.01c7.17,5.76,14.7,11.19,21.54,17.24c38.52,34.06,76.87,68.26,115.28,102.42
		c0.36,0.32,0.67,0.69,0.86,0.89c-46.19,41.53-92.33,83.01-138.53,124.55C367.42,356.62,318.79,316.54,278.02,268.89z"/>
	<path d="M20.99,578.2c-0.02-8.17,3.18-15.08,9.68-20.79c16.24-14.27,32.26-28.75,48.72-42.81
		c66.19-56.52,134.64-110.78,204.12-163.99c8.02-6.14,16.35-11.94,24.45-18c2.09-1.56,3.91-1.53,6.06-0.29
		c9.37,5.38,16.97,12.4,23.26,20.55c2.97,3.85,2.98,8.34,0.91,12.42c-2.62,5.15-5.3,10.47-9.11,14.91
		c-12.63,14.69-25.27,29.41-38.83,43.41c-56.1,57.93-112.69,115.47-170.95,171.66c-7.81,7.53-15.96,14.78-24.04,22.09
		c-9.38,8.49-20.84,10.68-33.07,6.95c-21.9-6.68-35.67-20.39-40.64-40.89C21.15,581.71,21.17,579.93,20.99,578.2z"/>
	<path d="M430.79,404.01c1.28-2.9,2.1-6.35,4.15-9.06c4.65-6.14,9.41-12.31,14.98-17.76c33.09-32.38,67.19-63.87,103.87-93.01
		c1.38-1.09,2.97-1.99,4.24-3.17c3-2.79,6.14-2.42,9.37-0.54c9.75,5.66,17.25,13.15,22.39,22.53c1.68,3.06,1.75,6.06-0.63,8.82
		c-6.51,7.55-12.7,15.35-19.72,22.5c-28.49,28.96-58.68,56.42-91.21,81.73c-4.32,3.36-9.08,6.25-13.65,9.35
		c-2.88,1.96-6.01,2.07-9.28,0.93c-9.5-3.3-16.69-9.13-22.24-16.66C431.98,408.21,431.67,406.29,430.79,404.01z"/>
	<path d="M437.29,592.96c-14-0.2-36.1-0.21-58.17-0.96c-12.42-0.42-24.81-1.94-37.18-3.23c-2.86-0.3-5.77-1.36-8.32-2.61
		c-6.19-3.03-6.31-10.18,0-13.01c4.03-1.81,8.63-2.99,13.1-3.49c9.73-1.08,19.54-2.11,29.32-2.15c46.32-0.22,92.65-0.31,138.98,0.05
		c11.79,0.09,23.57,1.93,35.34,3.11c1.98,0.2,3.93,0.99,5.79,1.73c3.52,1.4,5.86,3.7,5.84,7.39c-0.02,3.61-2.36,6.06-5.89,6.97
		c-5.95,1.54-12.02,3.05-18.16,3.64C507.18,593.38,476.26,592.6,437.29,592.96z"/>
</g>
</svg>
